<?xml version="1.0" encoding="UTF-8"?>
<svg width="2976px" height="1024px" viewBox="0 0 2976 1024" version="1.1" xmlns="http://www.w3.org/2000/svg" xmlns:xlink="http://www.w3.org/1999/xlink">
    <!-- Generator: Sketch 48 (47235) - http://www.bohemiancoding.com/sketch -->
    <title>albena_logo</title>
    <desc>Created with Sketch.</desc>
    <defs>
        <polygon id="path-1" points="0 0.622921154 385.149489 0.622921154 385.149489 386.990325 0 386.990325"></polygon>
        <polygon id="path-3" points="0.000870126922 0.622921154 385.152589 0.622921154 385.152589 386.990325 0.000870126922 386.990325"></polygon>
        <polygon id="path-5" points="0.56005145 0.908541914 385.666021 0.908541914 385.666021 523.936113 0.56005145 523.936113"></polygon>
        <polygon id="path-7" points="0.0218743347 0.615941795 387.201183 0.615941795 387.201183 386.82335 0.0218743347 386.82335"></polygon>
    </defs>
    <g id="Page-1" stroke="none" stroke-width="1" fill="none" fill-rule="evenodd">
        <g id="albena_logo">
            <g id="Page-1" transform="translate(70.000000, 250.000000)">
                <g id="Group-7" transform="translate(0.000000, 137.000000)">
                    <g id="Group-3">
                        <mask id="mask-2" fill="white">
                            <use xlink:href="#path-1"></use>
                        </mask>
                        <g id="Clip-2"></g>
                        <path d="M385.149489,377.955363 L365.721669,377.955363 L365.706804,327.920729 C365.706804,316.05769 350.99101,311.063902 343.432443,320.203056 C308.619929,362.326517 256.04441,386.990325 193.613769,386.990325 C72.8625039,386.990325 -0.00297288767,293.180037 -0.00297288767,193.802902 C-0.00297288767,92.3493635 74.9509575,0.622921154 193.613769,0.622921154 C260.236182,0.622921154 313.577219,31.5010558 343.692571,67.1720365 C351.236273,76.1028058 365.706804,71.1090173 365.714236,59.4097096 L365.721669,9.65044038 L385.149489,9.65044038 L385.149489,377.955363 Z M367.80269,193.802902 C367.80269,93.0414981 292.157563,18.6854019 193.613769,18.6854019 C97.8496248,18.6854019 19.424848,90.2655173 19.424848,193.802902 C20.1160444,277.19396 77.0319789,368.920402 195.69479,368.920402 C297.018234,368.920402 367.80269,289.004902 367.80269,193.802902 Z" id="Fill-1" fill="#FEFEFE" mask="url(#mask-2)"></path>
                    </g>
                    <g id="Group-6" transform="translate(2450.469427, 0.000000)">
                        <mask id="mask-4" fill="white">
                            <use xlink:href="#path-3"></use>
                        </mask>
                        <g id="Clip-5"></g>
                        <path d="M385.153332,377.955363 L365.725512,377.955363 L365.710647,327.920729 C365.710647,316.05769 350.994853,311.063902 343.436286,320.203056 C308.623772,362.326517 256.048253,386.990325 193.617612,386.990325 C72.866347,386.990325 0.000870126922,293.180037 0.000870126922,193.802902 C0.000870126922,92.3493635 74.9548006,0.622921154 193.617612,0.622921154 C260.240025,0.622921154 313.57363,31.5010558 343.696414,67.1645942 C351.240116,76.1028058 365.710647,71.1090173 365.710647,59.4097096 L365.725512,9.65044038 L385.153332,9.65044038 L385.153332,377.955363 Z M367.806533,193.802902 C367.806533,93.0414981 292.161406,18.6854019 193.617612,18.6854019 C97.8534678,18.6854019 19.4286911,90.2655173 19.4286911,193.802902 C20.1198874,277.19396 77.0358219,368.920402 195.698633,368.920402 C297.022077,368.920402 367.806533,289.004902 367.806533,193.802902 Z" id="Fill-4" fill="#FEFEFE" mask="url(#mask-4)"></path>
                    </g>
                </g>
                <polygon id="Fill-8" fill="#FEFEFE" points="601 515 620 515 620 1 601 1"></polygon>
                <g id="Group-17" transform="translate(842.000000, 0.000000)">
                    <g id="Group-11">
                        <mask id="mask-6" fill="white">
                            <use xlink:href="#path-5"></use>
                        </mask>
                        <g id="Clip-10"></g>
                        <path d="M0.56005145,0.906310241 L19.9855272,0.906310241 L19.9929585,197.977929 C19.9929585,209.71653 34.6475255,214.953523 42.0714162,205.863174 C73.060029,167.902414 123.169433,138.816273 192.072651,137.74507 C310.721138,137.74507 385.666021,229.429643 385.666021,330.836872 C385.666021,430.168645 312.801909,523.936113 192.072651,523.936113 C129.89478,523.936113 76.6196323,499.484413 41.4546165,457.700053 C33.7929235,448.602265 19.0714746,453.742552 19.2498263,465.63737 L19.9855272,514.905275 L0.56005145,514.905275 L0.56005145,0.906310241 Z M366.240545,330.836872 C366.240545,227.346748 287.825235,155.799306 192.072651,155.799306 C93.5407525,155.799306 17.904757,230.121462 17.904757,330.836872 C17.904757,425.995416 88.6806679,505.874438 189.991881,505.874438 C308.640368,505.874438 365.542001,414.189865 366.240545,330.836872 Z" id="Fill-9" fill="#FEFEFE" mask="url(#mask-6)"></path>
                    </g>
                    <g id="Group-14" transform="translate(546.648197, 137.122433)">
                        <mask id="mask-8" fill="white">
                            <use xlink:href="#path-7"></use>
                        </mask>
                        <g id="Clip-13"></g>
                        <path d="M47.1661812,195.798077 C32.0954602,195.798077 20.1161691,209.128605 22.4124476,224.043621 C37.8473034,324.379647 128.063553,369.392494 194.298926,368.752748 C262.302954,368.752748 321.976469,334.020475 351.122114,271.511309 L372.635792,271.511309 C338.630062,349.999255 267.854151,387.506242 193.607813,386.814423 C81.201636,386.814423 0.0218743347,303.46143 0.0218743347,193.715182 L0.0218743347,194.407001 C0.0218743347,83.9689348 84.6646321,0.615941795 194.298926,0.615941795 C292.838256,0.615941795 382.341098,71.471565 387.201183,185.383603 L386.51007,195.798077 L47.1661812,195.798077 Z M338.087575,177.736403 C354.510797,177.736403 366.408344,162.151885 362.254235,146.247494 C342.88821,72.1410669 269.934921,15.6276633 194.298926,18.6776167 C111.774095,18.6776167 40.6860684,73.0709308 24.1365143,152.749102 C21.4612384,165.633295 31.4340725,177.736403 44.5875125,177.736403 L338.087575,177.736403 Z" id="Fill-12" fill="#FEFEFE" mask="url(#mask-8)"></path>
                    </g>
                    <path d="M1128.8495,177.125919 C1128.8495,188.31404 1142.45625,193.908101 1150.19969,185.836883 C1181.49298,153.247016 1232.69479,136.658245 1278.02586,137.744326 C1325.21475,137.744326 1364.07313,150.241696 1393.21878,174.552056 C1429.29785,205.118539 1446.64255,254.431078 1446.64255,320.421653 L1446.64255,514.904531 L1427.21708,514.904531 L1427.21708,320.421653 C1427.21708,256.513973 1409.87237,215.533014 1382.10895,190.530836 C1353.66928,164.8294 1315.49458,155.798562 1278.02586,155.798562 C1185.7437,157.189639 1128.84207,210.675406 1128.84207,303.051797 L1128.84207,514.904531 L1109.41659,514.904531 L1109.41659,146.767725 L1128.84207,146.767725 L1128.8495,177.125919 Z" id="Fill-15" fill="#FEFEFE"></path>
                </g>
            </g>
        </g>
    </g>
</svg>