<svg width="2976" height="1024" xmlns="http://www.w3.org/2000/svg" xmlns:xlink="http://www.w3.org/1999/xlink"><defs><path id="a" d="M0 .623h385.15V386.99H0z"/><path id="c" d="M0 .623h385.153V386.99H0z"/><path id="e" d="M.56.909h385.106v523.027H.56z"/><path id="g" d="M.022.616h387.18v386.207H.021z"/></defs><g fill="none" fill-rule="evenodd"><g transform="translate(70 387)"><mask id="b" fill="#fff"><use xlink:href="#a"/></mask><path d="M385.15 377.955h-19.428l-.015-50.034c0-11.863-14.716-16.857-22.275-7.718-34.812 42.124-87.388 66.787-149.818 66.787C72.863 386.99-.003 293.18-.003 193.803-.003 92.349 74.951.623 193.614.623c66.622 0 119.963 30.878 150.079 66.549 7.543 8.93 22.014 3.937 22.021-7.762l.008-49.76h19.427v368.305zm-17.347-184.152c0-100.762-75.645-175.118-174.19-175.118-95.763 0-174.188 71.58-174.188 175.118.691 83.391 57.607 175.117 176.27 175.117 101.323 0 172.108-79.915 172.108-175.117z" fill="#FEFEFE" mask="url(#b)"/></g><g transform="translate(2520.47 387)"><mask id="d" fill="#fff"><use xlink:href="#c"/></mask><path d="M385.153 377.955h-19.427l-.015-50.034c0-11.863-14.716-16.857-22.275-7.718-34.812 42.124-87.388 66.787-149.818 66.787C72.866 386.99 0 293.18 0 193.803 0 92.349 74.955.623 193.618.623c66.622 0 119.956 30.878 150.078 66.542 7.544 8.938 22.015 3.944 22.015-7.755l.015-49.76h19.427v368.305zm-17.346-184.152c0-100.762-75.646-175.118-174.19-175.118-95.764 0-174.188 71.58-174.188 175.118.69 83.391 57.607 175.117 176.27 175.117 101.323 0 172.108-79.915 172.108-175.117z" fill="#FEFEFE" mask="url(#d)"/></g><path fill="#FEFEFE" d="M671 765h19V251h-19z"/><g transform="translate(912 250)"><mask id="f" fill="#fff"><use xlink:href="#e"/></mask><path d="M.56.906h19.426l.007 197.072c0 11.739 14.655 16.976 22.078 7.885 30.989-37.96 81.098-67.047 150.002-68.118 118.648 0 193.593 91.685 193.593 193.092 0 99.332-72.864 193.1-193.593 193.1-62.178 0-115.453-24.453-150.618-66.237-7.662-9.098-22.384-3.957-22.205 7.937l.736 49.268H.56V.906zm365.68 329.93c0-103.49-78.415-175.037-174.167-175.037-98.532 0-174.168 74.322-174.168 175.038 0 95.158 70.776 175.037 172.087 175.037 118.648 0 175.55-91.684 176.249-175.037z" fill="#FEFEFE" mask="url(#f)"/></g><g transform="translate(1458.648 387.122)"><mask id="h" fill="#fff"><use xlink:href="#g"/></mask><path d="M47.166 195.798c-15.07 0-27.05 13.33-24.754 28.246C37.847 324.38 128.064 369.392 194.3 368.753c68.004 0 127.677-34.733 156.823-97.242h21.514C338.63 350 267.854 387.506 193.608 386.814 81.202 386.814.022 303.461.022 193.715v.692C.022 83.969 84.665.616 194.299.616c98.54 0 188.042 70.856 192.902 184.768l-.69 10.414H47.165zm290.922-18.062c16.423 0 28.32-15.584 24.166-31.489-19.366-74.106-92.32-130.62-167.955-127.57-82.525 0-153.613 54.394-170.162 134.072-2.676 12.884 7.297 24.987 20.45 24.987h293.5z" fill="#FEFEFE" mask="url(#h)"/></g><path d="M2040.85 427.126c0 11.188 13.606 16.782 21.35 8.71 31.293-32.589 82.495-49.178 127.826-48.092 47.189 0 86.047 12.498 115.193 36.808 36.079 30.567 53.424 79.88 53.424 145.87v194.483h-19.426V570.422c0-63.908-17.345-104.889-45.108-129.891-28.44-25.702-66.614-34.732-104.083-34.732-92.282 1.39-149.184 54.876-149.184 147.253v211.853h-19.425V396.768h19.425l.007 30.358z" fill="#FEFEFE"/></g></svg>